<svg width="256.06" height="53.085" version="1.1" viewBox="0 0 67.75 14.045" xmlns="http://www.w3.org/2000/svg">
 <g transform="translate(-227.85 -241.69)">
  <rect x="-.76118" y="-.15164" width="320.95" height="192.8" fill="#333" fill-rule="evenodd" stop-color="#000000" stroke-width=".29104" style="font-variation-settings:normal"/>
  <text x="110.54652" y="121.51678" fill="#ffffff" font-family="'Open Sans'" font-size="115.84px" opacity=".05" stroke-width="2.0686" style="line-height:1.25" xml:space="preserve"><tspan x="110.54652" y="121.51678" fill="#ffffff" font-family="Poppins" font-size="115.84px" font-weight="bold" stroke-width="2.0686">CSS</tspan></text>
  <rect x="-1.662" y="-.15164" width="321.86" height="17.583" fill="#1a1a1a" fill-rule="evenodd" stop-color="#000000" stroke-width=".29104" style="font-variation-settings:normal"/>
  <text x="45.075256" y="72.334396" fill="#ffffff" font-family="'Open Sans'" font-size="21.522px" stroke-width=".38431" style="line-height:1.25" xml:space="preserve"><tspan x="45.075256" y="72.334396" fill="#845cd6" font-family="Poppins" font-size="21.522px" font-weight="bold" stroke-width=".38431">You ain't good at CSS</tspan></text>
  <text x="45.440594" y="92.966263" fill="#b3b3b3" font-family="Poppins" font-size="11.59px" font-weight="600" stroke-width=".20697" style="line-height:1.25" xml:space="preserve"><tspan x="45.440594" y="92.966263" fill="#b3b3b3" font-family="Poppins" font-size="11.59px" font-weight="600" stroke-width=".20697">but yet want to make some good stuff ?</tspan></text>
  <g font-family="'Open Sans'">
   <text x="73.644958" y="138.92509" font-size="8.4667px" stroke-width=".26458" style="line-height:1.25" xml:space="preserve"><tspan x="73.644958" y="138.92509" stroke-width=".26458"/></text>
   <text x="80.814148" y="124.32779" fill="#7447d1" font-size="11.043px" stroke-width=".19719" style="line-height:1.25" xml:space="preserve"><tspan x="80.814148" y="124.32779" fill="#7447d1" font-family="Poppins" font-size="11.043px" font-weight="500" stroke-width=".19719"><tspan font-family="'Zen Dots'" font-size="11.043px" font-weight="normal" style="font-variant-caps:normal;font-variant-east-asian:normal;font-variant-ligatures:normal;font-variant-numeric:normal">NO<tspan fill="#ffffff" stroke-width=".19719">Style</tspan><tspan fill="#999999" stroke-width=".19719">CSS</tspan></tspan> <tspan fill="#ffffff">will help you</tspan></tspan></text>
   <text x="179.17975" y="236.1071" font-size="8.4667px" stroke-width=".26458" style="line-height:1.25" xml:space="preserve"><tspan x="179.17975" y="236.1071" stroke-width=".26458"/></text>
  </g>
  <g transform="translate(18.154 -.34865)">
   <rect transform="rotate(45)" x="285.52" y="-43.609" width="10.703" height="10.703" rx="1.319" ry="1.319" fill="#7447d1" fill-rule="evenodd" stop-color="#000000" stroke-width=".14509" style="font-variation-settings:normal"/>
   <text x="226.7252" y="183.24263" fill="#333333" font-family="'Open Sans'" font-size="12.36px" stroke-width=".38626" style="line-height:1.25" xml:space="preserve"><tspan x="226.7252" y="183.24263" fill="#333333" font-family="'Zen Dots'" stroke-width=".38626">N</tspan></text>
   <text x="238.27283" y="181.41016" fill="#333333" font-family="'Open Sans'" font-size="7.9903px" stroke-width=".2497" style="line-height:1.25" xml:space="preserve"><tspan x="238.27283" y="181.41016" fill="#ffffff" font-family="'Zen Dots'" stroke-width=".2497">OStyle<tspan fill="#cccccc" stroke-width=".2497">CSS</tspan></tspan></text>
  </g>
  <text x="146.26964" y="215.76132" font-family="'Open Sans'" font-size="8.4667px" stroke-width=".26458" style="line-height:1.25" xml:space="preserve"><tspan x="146.26964" y="215.76132" stroke-width=".26458">#845cd6</tspan></text>
  <text x="219.78482" y="214.01985" font-family="'Open Sans'" font-size="8.4667px" stroke-width=".26458" style="line-height:1.25" xml:space="preserve"><tspan x="219.78482" y="214.01985" stroke-width=".26458">#7447d1</tspan></text>
  <g transform="matrix(.66223 0 0 .66223 -127.3 -109.85)">
   <rect transform="rotate(45)" x="285.52" y="-43.609" width="10.703" height="10.703" rx="1.319" ry="1.319" fill="#7447d1" fill-rule="evenodd" stop-color="#000000" stroke-width=".14509" style="font-variation-settings:normal"/>
   <text x="226.7252" y="183.24263" fill="#333333" font-family="'Open Sans'" font-size="12.36px" stroke-width=".38626" style="line-height:1.25" xml:space="preserve"><tspan x="226.7252" y="183.24263" fill="#333333" font-family="'Zen Dots'" stroke-width=".38626">N</tspan></text>
   <text x="238.27283" y="181.41016" fill="#333333" font-family="'Open Sans'" font-size="7.9903px" stroke-width=".2497" style="line-height:1.25" xml:space="preserve"><tspan x="238.27283" y="181.41016" fill="#ffffff" font-family="'Zen Dots'" stroke-width=".2497">OStyle<tspan fill="#cccccc" stroke-width=".2497">CSS</tspan></tspan></text>
  </g>
  <g font-family="'Open Sans'">
   <text x="44.929443" y="106.94968" fill="#cccccc" font-size="8.5018px" stroke-width=".15182" style="line-height:1.25" xml:space="preserve"><tspan x="44.929443" y="106.94968" fill="#cccccc" font-family="Poppins" font-size="8.5018px" font-weight="500" stroke-width=".15182">Well, Don't worry!</tspan></text>
   <g font-size="5.6412px" stroke-width=".17629">
    <text x="181.51846" y="9.8383036" style="line-height:1.25" xml:space="preserve"><tspan x="181.51846" y="9.8383036" fill="#ffffff" font-family="Poppins" stroke-width=".17629">Features</tspan></text>
    <text x="217.50131" y="9.8383036" style="line-height:1.25" xml:space="preserve"><tspan x="217.50131" y="9.8383036" fill="#ffffff" font-family="Poppins" stroke-width=".17629">Docs</tspan></text>
    <text x="242.90097" y="9.8383036" style="line-height:1.25" xml:space="preserve"><tspan x="242.90097" y="9.8383036" fill="#ffffff" font-family="Poppins" stroke-width=".17629">Downloads</tspan></text>
    <text x="286.82211" y="9.8383036" style="line-height:1.25" xml:space="preserve"><tspan x="286.82211" y="9.8383036" fill="#ffffff" font-family="Poppins" stroke-width=".17629">FAQ</tspan></text>
   </g>
  </g>
  <rect x="335.91" y=".35715" width="99.616" height="192.8" fill="#333" fill-rule="evenodd" stop-color="#000000" stroke-width=".16214" style="font-variation-settings:normal"/>
  <rect x="335.91" y=".35715" width="99.616" height="17.583" fill="#1a1a1a" fill-rule="evenodd" stop-color="#000000" stroke-width=".16192" style="font-variation-settings:normal"/>
  <g transform="matrix(.66223 0 0 .66223 213.96 -108.85)">
   <rect transform="rotate(45)" x="285.52" y="-43.609" width="10.703" height="10.703" rx="1.319" ry="1.319" fill="#7447d1" fill-rule="evenodd" stop-color="#000000" stroke-width=".14509" style="font-variation-settings:normal"/>
   <text x="226.7252" y="183.24263" fill="#333333" font-family="'Open Sans'" font-size="12.36px" stroke-width=".38626" style="line-height:1.25" xml:space="preserve"><tspan x="226.7252" y="183.24263" fill="#333333" font-family="'Zen Dots'" stroke-width=".38626">N</tspan></text>
   <text x="238.27283" y="181.41016" fill="#333333" font-family="'Open Sans'" font-size="7.9903px" stroke-width=".2497" style="line-height:1.25" xml:space="preserve"><tspan x="238.27283" y="181.41016" fill="#ffffff" font-family="'Zen Dots'" stroke-width=".2497">OStyle<tspan fill="#cccccc" stroke-width=".2497">CSS</tspan></tspan></text>
  </g>
  <g fill="#fff" fill-rule="evenodd" stroke-width=".067597">
   <rect x="421.41" y="6.7071" width="7.4083" height=".79375" rx="1.443" ry=".26169" stop-color="#000000" style="font-variation-settings:normal"/>
   <rect x="421.41" y="8.8238" width="7.4083" height=".79375" rx="1.443" ry=".26169" stop-color="#000000" style="font-variation-settings:normal"/>
   <rect x="421.41" y="10.94" width="7.4083" height=".79375" rx="1.443" ry=".26169" stop-color="#000000" style="font-variation-settings:normal"/>
  </g>
  <text x="343.06329" y="53.656078" fill="#845cd6" font-family="Poppins" font-size="13.939px" font-weight="bold" stroke-width=".24891" style="line-height:1.25" xml:space="preserve"><tspan x="343.06329" y="53.656078">You ain't</tspan><tspan x="343.06329" y="71.233971">good at CSS</tspan></text>
  <text x="343.31467" y="87.461403" fill="#b3b3b3" font-family="Poppins" font-size="7.729px" font-weight="600" stroke-width=".13802" style="line-height:1.25" xml:space="preserve"><tspan x="343.31467" y="87.461403">but yet want to make</tspan><tspan x="343.31467" y="97.12265">some good stuff ?</tspan></text>
  <text x="343.32217" y="108.19807" fill="#cccccc" font-family="'Open Sans'" font-size="4.8666px" stroke-width=".086903" style="line-height:1.25" xml:space="preserve"><tspan x="343.32217" y="108.19807" fill="#cccccc" font-family="Poppins" font-size="4.8666px" font-weight="500" stroke-width=".086903">Well, Don't worry!</tspan></text>
  <text x="342.81616" y="118.94477" fill="#7447d1" font-family="'Open Sans'" font-size="5.952px" stroke-width=".10628" style="line-height:1.25" xml:space="preserve"><tspan x="342.81616" y="118.94477" fill="#7447d1" font-family="Poppins" font-size="5.952px" font-weight="500" stroke-width=".10628"><tspan font-family="'Zen Dots'" font-size="5.952px" font-weight="normal" style="font-variant-caps:normal;font-variant-east-asian:normal;font-variant-ligatures:normal;font-variant-numeric:normal">NO<tspan fill="#ffffff" stroke-width=".10628">Style</tspan><tspan fill="#999999" stroke-width=".10628">CSS </tspan></tspan><tspan fill="#ffffff">will help you</tspan></tspan></text>
  <text x="442.13449" y="72.932365" fill="#ffffff" font-family="Poppins" font-size="78.395px" font-weight="bold" opacity=".05" stroke-width="1.3999" text-anchor="end" style="line-height:0.8" xml:space="preserve"><tspan x="442.13449" y="72.932365" text-align="end">C</tspan><tspan x="442.13449" y="136.51472" text-align="end">S</tspan><tspan x="442.13449" y="200.09708" text-align="end">S</tspan></text>
  <g>
   <rect x="343.32" y="133.14" width="43.186" height="11.459" rx="1.0583" ry="1.0583" fill="#aed65c" fill-rule="evenodd" stop-color="#000000" stroke-width=".29104" style="font-variation-settings:normal"/>
   <text x="354.77966" y="140.21538" fill="#1a1a1a" font-family="'Open Sans'" font-size="4.8666px" stroke-width=".086903" style="line-height:1.25" xml:space="preserve"><tspan x="354.77966" y="140.21538" fill="#1a1a1a" font-family="Poppins" font-size="4.8666px" font-weight="500" stroke-width=".086903">Try now</tspan></text>
  </g>
  <text x="287.25479" y="216.91286" font-family="'Open Sans'" font-size="8.4667px" stroke-width=".26458" style="line-height:1.25" xml:space="preserve"><tspan x="287.25479" y="216.91286" stroke-width=".26458">#aed65c</tspan></text>
  <g transform="translate(-203.06 2.8868)">
   <rect x="343.32" y="133.14" width="43.186" height="11.459" rx="1.0583" ry="1.0583" fill="#aed65c" fill-rule="evenodd" stop-color="#000000" stroke-width=".29104" style="font-variation-settings:normal"/>
   <text x="354.77966" y="140.21538" fill="#1a1a1a" font-family="'Open Sans'" font-size="4.8666px" stroke-width=".086903" style="line-height:1.25" xml:space="preserve"><tspan x="354.77966" y="140.21538" fill="#1a1a1a" font-family="Poppins" font-size="4.8666px" font-weight="500" stroke-width=".086903">Try now</tspan></text>
  </g>
  <path d="m235.81 242.07 5.7026 5.7026c0.51669 0.5167 0.5167 1.3486 0 1.8653l-5.7026 5.7025c-0.51669 0.5167-1.3486 0.5167-1.8653 0l-5.7025-5.7026c-0.51669-0.51669-0.5167-1.3486 0-1.8653l5.7026-5.7026c0.51669-0.51669 1.3486-0.51669 1.8653 0z" fill="#7447d1" fill-rule="evenodd" stop-color="#000000" stroke-width=".14509" style="font-variation-settings:normal"/>
  <path d="m229.74 253.33v-8.8376h2.0024l6.2543 6.3532v-6.3532h1.9776v8.8376h-2.0024l-6.2543-6.3656v6.3656z" fill="#333" stroke-width=".38626"/>
  <g fill="#fff" stroke-width=".2497">
   <path d="m243.86 251.54q-1.5262 0-2.3651-0.72712-0.83898-0.73511-0.83898-2.1734 0-1.4303 0.83898-2.1574 0.83898-0.73511 2.4211-0.73511h1.4383q1.5821 0 2.4211 0.73511 0.83899 0.72711 0.83899 2.1574 0 1.4383-0.83899 2.1734-0.83898 0.72712-2.3811 0.72712zm0.14382-4.7542q-0.88692 0-1.3823 0.31961t-0.62325 1.0148h5.2736q-0.12784-0.69516-0.62324-1.0148t-1.3823-0.31961zm0.024 3.7155h1.2385q0.89492 0 1.3823-0.31962 0.4954-0.31961 0.62324-1.0228h-5.2736q0.12785 0.70315 0.62325 1.0228 0.4954 0.31962 1.4063 0.31962z"/>
   <path d="m249.24 251.54v-1.0387l4.5944 8e-3q0.35158 0 0.53535-0.15981 0.19177-0.1678 0.19177-0.53535 0-0.36756-0.19177-0.52736-0.18377-0.1678-0.53535-0.1678h-2.8605q-0.88693 0-1.3823-0.42349-0.48741-0.43147-0.48741-1.2625 0-0.83099 0.48741-1.2545 0.4954-0.43147 1.3823-0.43147h4.4906v1.0387l-4.3547-8e-3q-0.34358 0-0.53535 0.1598-0.19177 0.15182-0.19177 0.4954 0 0.34359 0.19177 0.50339 0.19177 0.15182 0.53535 0.15182h2.8605q0.88692 0 1.3743 0.43947 0.4954 0.43147 0.4954 1.2864 0 0.84697-0.4954 1.2864-0.48741 0.43947-1.3743 0.43947z"/>
   <path d="m258.65 251.5q-0.69516 0-1.0228-0.34359-0.3276-0.35157-0.3276-0.91888v-1.9337h-1.1906v-0.91889h1.1906v-1.2625h1.1586v1.2625h1.7099v0.91889h-1.7099v1.7898q0 0.48741 0.47941 0.48741h1.4542v0.91889z"/>
   <path d="m261.92 253.29v-0.91889h2.4131q0.47942 0 0.47942-0.48741v-0.39152h-2.469q-0.70315 0-1.0308-0.35158-0.31961-0.35157-0.31961-0.91089v-2.8526h1.1586v2.7167q0 0.47942 0.47942 0.47942h2.1414v-3.1961h1.1985v4.6504q0 0.56731-0.3276 0.91089-0.3276 0.35158-1.0228 0.35158z"/>
   <path d="m266.84 251.5v-5.7131h1.1586v5.7131z"/>
   <path d="m271 251.54q-1.0707 0-1.67-0.52736-0.59928-0.53535-0.59928-1.5661 0-1.0387 0.59928-1.5661 0.59927-0.53535 1.67-0.53535h1.9976q0.70315 0 1.0707 0.33559 0.37554 0.32761 0.37554 0.94286 0 1.2545-1.4462 1.2545h-3.0203q0.1678 0.7431 1.0228 0.7431h3.2361v0.91889zm0-3.276q-0.823 0-1.0148 0.69515h2.9564q0.15981 0 0.2477-0.0959 0.0959-0.0959 0.0959-0.26368 0-0.33559-0.34359-0.33559z"/>
  </g>
  <g fill="#ccc" stroke-width=".2497">
   <path d="m278.22 251.54q-1.5821 0-2.4211-0.72712-0.83898-0.73511-0.83898-2.1734 0-1.4303 0.83898-2.1654 0.83899-0.7351 2.4211-0.72711l2.8765 0.016v1.0228h-2.7886q-1.0387 0-1.5421 0.43946-0.50339 0.43947-0.50339 1.4143t0.50339 1.4223q0.50339 0.43947 1.5421 0.43947h2.8685v1.0387z"/>
   <path d="m281.79 251.54v-1.0387l4.5944 8e-3q0.35158 0 0.53536-0.15981 0.19176-0.1678 0.19176-0.53535 0-0.36756-0.19176-0.52736-0.18378-0.1678-0.53536-0.1678h-2.8605q-0.88693 0-1.3823-0.42349-0.48741-0.43147-0.48741-1.2625 0-0.83099 0.48741-1.2545 0.4954-0.43147 1.3823-0.43147h4.4906v1.0387l-4.3547-8e-3q-0.34358 0-0.53535 0.1598-0.19176 0.15182-0.19176 0.4954 0 0.34359 0.19176 0.50339 0.19177 0.15182 0.53535 0.15182h2.8605q0.88692 0 1.3743 0.43947 0.4954 0.43147 0.4954 1.2864 0 0.84697-0.4954 1.2864-0.48741 0.43947-1.3743 0.43947z"/>
   <path d="m289 251.54v-1.0387l4.5944 8e-3q0.35158 0 0.53535-0.15981 0.19177-0.1678 0.19177-0.53535 0-0.36756-0.19177-0.52736-0.18377-0.1678-0.53535-0.1678h-2.8605q-0.88693 0-1.3823-0.42349-0.48741-0.43147-0.48741-1.2625 0-0.83099 0.48741-1.2545 0.4954-0.43147 1.3823-0.43147h4.4906v1.0387l-4.3547-8e-3q-0.34358 0-0.53535 0.1598-0.19177 0.15182-0.19177 0.4954 0 0.34359 0.19177 0.50339 0.19177 0.15182 0.53535 0.15182h2.8605q0.88692 0 1.3743 0.43947 0.4954 0.43147 0.4954 1.2864 0 0.84697-0.4954 1.2864-0.48741 0.43947-1.3743 0.43947z"/>
  </g>
 </g>
</svg>
